/* XPM */
static char * grass_block_side_xpm[] = {
"16 16 41 1",
" 	c #74B44A",
".	c #76B64C",
"+	c #73B349",
"@	c #66A63C",
"#	c #6FAF45",
"$	c #5F9F35",
"%	c #6CAC42",
"&	c #7EBE54",
"*	c #6AAA40",
"=	c #67A73D",
"-	c #69A93F",
";	c #61A137",
">	c #509026",
",	c #6DAD43",
"'	c #75B54B",
")	c #8AB95A",
"!	c #81B051",
"~	c #83B253",
"{	c #593D29",
"]	c #68A83E",
"^	c #62A238",
"/	c #93C263",
"(	c #90BF60",
"_	c #6BAB41",
":	c #8DBC5D",
"<	c #9CCB6C",
"[	c #64A43A",
"}	c #70B046",
"|	c #7FBF55",
"1	c #92C162",
"2	c #97C667",
"3	c #57972D",
"4	c #60A036",
"5	c #6C6C6C",
"6	c #71B147",
"7	c #966C4A",
"8	c #704E36",
"9	c #B9855C",
"0	c #79553A",
"a	c #664731",
"b	c #878787",
" .+@@#$%&.*=-;>,",
"'%)!~{]^$/(+;%=_",
":{<[-{}{ |12{34{",
"{5{{6{{{${,{7{{8",
"8779{800{a{507{7",
"7{87008{{00{8079",
"9700b00997997007",
"779977007{708800",
"a077700{800007{7",
"0{{a0{{000779970",
"09799097{99{78b8",
"{a7779785880a88{",
"7{a8879788788799",
"9a875a787{9{7977",
"aa{90{8{99788770",
"a07970ba778aa8{{"};

